<svg width="258" height="174" viewBox="0 0 258 174" fill="none" xmlns="http://www.w3.org/2000/svg">
<path opacity="0.99" d="M44.34 47.5C56.9966 47.5 67.3034 50.6059 75.215 56.8613C83.2601 63.0135 87.6882 71.6537 88.5128 82.7275L88.5529 83.2646H60.6378L60.6115 82.792C60.3866 78.7465 58.6535 75.4421 55.3849 72.8496L55.3771 72.8428L55.3702 72.8369C52.2225 70.1388 47.981 68.7646 42.5929 68.7646C37.9048 68.7647 34.1852 69.9642 31.3849 72.3164C28.73 74.6438 27.3702 78.0404 27.3702 82.5898C27.3703 85.7255 28.3716 88.3319 30.3644 90.4424C32.5287 92.4915 35.1548 94.2052 38.2491 95.5811C41.4897 96.8533 46.0106 98.3611 51.8185 100.104C59.7514 102.437 66.2408 104.775 71.2794 107.118C76.3645 109.483 80.7359 113.03 84.3917 117.747C88.087 122.515 89.9122 128.748 89.9122 136.396C89.9121 143.01 88.198 149.155 84.7736 154.823C81.3428 160.502 76.3198 165.046 69.7267 168.46L69.7198 168.463C63.1143 171.766 55.2896 173.407 46.2618 173.407C37.7023 173.407 29.948 171.941 23.007 169L23.004 168.999C16.174 166.055 10.7419 161.808 6.72473 156.255C2.69874 150.689 0.633638 144.123 0.515747 136.578L0.507935 136.07H27.6866L27.7189 136.536C28.0611 141.44 29.7665 145.273 32.8019 148.083C35.9472 150.888 40.2392 152.317 45.7374 152.317C51.3691 152.317 55.7278 150.996 58.8722 148.413C62.0131 145.717 63.5811 142.25 63.5812 137.969C63.5812 134.47 62.5127 131.628 60.3995 129.403C58.2446 127.135 55.5153 125.368 52.1993 124.11L52.1886 124.107L52.1788 124.103C48.9473 122.718 44.4295 121.211 38.6154 119.583L38.6085 119.581C30.6776 117.248 24.1913 114.97 19.1564 112.745L19.1505 112.742L19.1437 112.739C14.1788 110.375 9.86921 106.889 6.21497 102.292L6.20618 102.281C2.62932 97.5121 0.865356 91.2232 0.865356 83.4629C0.865411 76.1549 2.69394 69.7658 6.36633 64.3164C10.0356 58.8717 15.1812 54.7373 21.7823 51.9082C28.3769 48.9655 35.8994 47.5 44.34 47.5ZM135.224 49.2471V125.216C135.224 133.396 137.353 139.599 141.54 143.903C145.731 148.094 151.646 150.221 159.356 150.221C167.184 150.221 173.155 148.093 177.345 143.903C181.533 139.599 183.662 133.397 183.662 125.216V49.2471H209.294V125.041C209.294 135.48 207.006 144.37 202.404 151.687C197.928 158.871 191.858 164.292 184.203 167.943L184.202 167.942C176.674 171.588 168.272 173.407 159.006 173.407C149.854 173.407 141.51 171.588 133.982 167.941L133.979 167.94C126.554 164.287 120.66 158.863 116.302 151.679L116.3 151.676V151.675C111.935 144.361 109.766 135.475 109.766 125.041V49.2471H135.224ZM257.382 49.2471V172.185H231.925V49.2471H257.382Z" stroke="white"/>
<path d="M57.0157 7.248V9.96H50.0317V14.256H55.3837V16.92H50.0317V24H46.6717V7.248H57.0157ZM61.1023 9.12C60.5103 9.12 60.0143 8.936 59.6143 8.568C59.2303 8.184 59.0383 7.712 59.0383 7.152C59.0383 6.592 59.2303 6.128 59.6143 5.76C60.0143 5.376 60.5103 5.184 61.1023 5.184C61.6943 5.184 62.1823 5.376 62.5663 5.76C62.9663 6.128 63.1663 6.592 63.1663 7.152C63.1663 7.712 62.9663 8.184 62.5663 8.568C62.1823 8.936 61.6943 9.12 61.1023 9.12ZM62.7583 10.704V24H59.3983V10.704H62.7583ZM69.438 12.768C69.87 12.064 70.43 11.512 71.118 11.112C71.822 10.712 72.622 10.512 73.518 10.512V14.04H72.63C71.574 14.04 70.774 14.288 70.23 14.784C69.702 15.28 69.438 16.144 69.438 17.376V24H66.078V10.704H69.438V12.768ZM80.8691 24.216C79.7811 24.216 78.8051 24.024 77.9411 23.64C77.0771 23.24 76.3891 22.704 75.8771 22.032C75.3811 21.36 75.1091 20.616 75.0611 19.8H78.4451C78.5091 20.312 78.7571 20.736 79.1891 21.072C79.6371 21.408 80.1891 21.576 80.8451 21.576C81.4851 21.576 81.9811 21.448 82.3331 21.192C82.7011 20.936 82.8851 20.608 82.8851 20.208C82.8851 19.776 82.6611 19.456 82.2131 19.248C81.7811 19.024 81.0851 18.784 80.1251 18.528C79.1331 18.288 78.3171 18.04 77.6771 17.784C77.0531 17.528 76.5091 17.136 76.0451 16.608C75.5971 16.08 75.3731 15.368 75.3731 14.472C75.3731 13.736 75.5811 13.064 75.9971 12.456C76.4291 11.848 77.0371 11.368 77.8211 11.016C78.6211 10.664 79.5571 10.488 80.6291 10.488C82.2131 10.488 83.4771 10.888 84.4211 11.688C85.3651 12.472 85.8851 13.536 85.9811 14.88H82.7651C82.7171 14.352 82.4931 13.936 82.0931 13.632C81.7091 13.312 81.1891 13.152 80.5331 13.152C79.9251 13.152 79.4531 13.264 79.1171 13.488C78.7971 13.712 78.6371 14.024 78.6371 14.424C78.6371 14.872 78.8611 15.216 79.3091 15.456C79.7571 15.68 80.4531 15.912 81.3971 16.152C82.3571 16.392 83.1491 16.64 83.7731 16.896C84.3971 17.152 84.9331 17.552 85.3811 18.096C85.8451 18.624 86.0851 19.328 86.1011 20.208C86.1011 20.976 85.8851 21.664 85.4531 22.272C85.0371 22.88 84.4291 23.36 83.6291 23.712C82.8451 24.048 81.9251 24.216 80.8691 24.216ZM92.7712 13.464V19.896C92.7712 20.344 92.8752 20.672 93.0832 20.88C93.3072 21.072 93.6752 21.168 94.1872 21.168H95.7472V24H93.6352C90.8032 24 89.3872 22.624 89.3872 19.872V13.464H87.8032V10.704H89.3872V7.416H92.7712V10.704H95.7472V13.464H92.7712ZM122.147 7.248V24H118.787V13.104L114.299 24H111.755L107.243 13.104V24H103.883V7.248H107.699L113.027 19.704L118.355 7.248H122.147ZM131.373 24.216C130.093 24.216 128.941 23.936 127.917 23.376C126.893 22.8 126.085 21.992 125.493 20.952C124.917 19.912 124.629 18.712 124.629 17.352C124.629 15.992 124.925 14.792 125.517 13.752C126.125 12.712 126.949 11.912 127.989 11.352C129.029 10.776 130.189 10.488 131.469 10.488C132.749 10.488 133.909 10.776 134.949 11.352C135.989 11.912 136.805 12.712 137.397 13.752C138.005 14.792 138.309 15.992 138.309 17.352C138.309 18.712 137.997 19.912 137.373 20.952C136.765 21.992 135.933 22.8 134.877 23.376C133.837 23.936 132.669 24.216 131.373 24.216ZM131.373 21.288C131.981 21.288 132.549 21.144 133.077 20.856C133.621 20.552 134.053 20.104 134.373 19.512C134.693 18.92 134.853 18.2 134.853 17.352C134.853 16.088 134.517 15.12 133.845 14.448C133.189 13.76 132.381 13.416 131.421 13.416C130.461 13.416 129.653 13.76 128.997 14.448C128.357 15.12 128.037 16.088 128.037 17.352C128.037 18.616 128.349 19.592 128.973 20.28C129.613 20.952 130.413 21.288 131.373 21.288ZM146.317 20.904L149.677 10.704H153.253L148.333 24H144.253L139.357 10.704H142.957L146.317 20.904ZM167.5 17.064C167.5 17.544 167.468 17.976 167.404 18.36H157.684C157.764 19.32 158.1 20.072 158.692 20.616C159.284 21.16 160.012 21.432 160.876 21.432C162.124 21.432 163.012 20.896 163.54 19.824H167.164C166.78 21.104 166.044 22.16 164.956 22.992C163.868 23.808 162.532 24.216 160.948 24.216C159.668 24.216 158.516 23.936 157.492 23.376C156.484 22.8 155.692 21.992 155.116 20.952C154.556 19.912 154.276 18.712 154.276 17.352C154.276 15.976 154.556 14.768 155.116 13.728C155.676 12.688 156.46 11.888 157.468 11.328C158.476 10.768 159.636 10.488 160.948 10.488C162.212 10.488 163.34 10.76 164.332 11.304C165.34 11.848 166.116 12.624 166.66 13.632C167.22 14.624 167.5 15.768 167.5 17.064ZM164.02 16.104C164.004 15.24 163.692 14.552 163.084 14.04C162.476 13.512 161.732 13.248 160.852 13.248C160.02 13.248 159.316 13.504 158.74 14.016C158.18 14.512 157.836 15.208 157.708 16.104H164.02ZM173.313 12.768C173.745 12.064 174.305 11.512 174.993 11.112C175.697 10.712 176.497 10.512 177.393 10.512V14.04H176.505C175.449 14.04 174.649 14.288 174.105 14.784C173.577 15.28 173.313 16.144 173.313 17.376V24H169.953V10.704H173.313V12.768ZM191.159 24.168C189.991 24.168 188.935 23.968 187.991 23.568C187.063 23.168 186.327 22.592 185.783 21.84C185.239 21.088 184.959 20.2 184.943 19.176H188.543C188.591 19.864 188.831 20.408 189.263 20.808C189.711 21.208 190.319 21.408 191.087 21.408C191.871 21.408 192.487 21.224 192.935 20.856C193.383 20.472 193.607 19.976 193.607 19.368C193.607 18.872 193.455 18.464 193.151 18.144C192.847 17.824 192.463 17.576 191.999 17.4C191.551 17.208 190.927 17 190.127 16.776C189.039 16.456 188.151 16.144 187.463 15.84C186.791 15.52 186.207 15.048 185.711 14.424C185.231 13.784 184.991 12.936 184.991 11.88C184.991 10.888 185.239 10.024 185.735 9.288C186.231 8.552 186.927 7.992 187.823 7.608C188.719 7.208 189.743 7.008 190.895 7.008C192.623 7.008 194.023 7.432 195.095 8.28C196.183 9.112 196.783 10.28 196.895 11.784H193.199C193.167 11.208 192.919 10.736 192.455 10.368C192.007 9.984 191.407 9.792 190.655 9.792C189.999 9.792 189.471 9.96 189.071 10.296C188.687 10.632 188.495 11.12 188.495 11.76C188.495 12.208 188.639 12.584 188.927 12.888C189.231 13.176 189.599 13.416 190.031 13.608C190.479 13.784 191.103 13.992 191.903 14.232C192.991 14.552 193.879 14.872 194.567 15.192C195.255 15.512 195.847 15.992 196.343 16.632C196.839 17.272 197.087 18.112 197.087 19.152C197.087 20.048 196.855 20.88 196.391 21.648C195.927 22.416 195.247 23.032 194.351 23.496C193.455 23.944 192.391 24.168 191.159 24.168ZM203.36 12.624C203.792 12.016 204.384 11.512 205.136 11.112C205.904 10.696 206.776 10.488 207.752 10.488C208.888 10.488 209.912 10.768 210.824 11.328C211.752 11.888 212.48 12.688 213.008 13.728C213.552 14.752 213.824 15.944 213.824 17.304C213.824 18.664 213.552 19.872 213.008 20.928C212.48 21.968 211.752 22.776 210.824 23.352C209.912 23.928 208.888 24.216 207.752 24.216C206.776 24.216 205.912 24.016 205.16 23.616C204.424 23.216 203.824 22.712 203.36 22.104V30.336H200V10.704H203.36V12.624ZM210.392 17.304C210.392 16.504 210.224 15.816 209.888 15.24C209.568 14.648 209.136 14.2 208.592 13.896C208.064 13.592 207.488 13.44 206.864 13.44C206.256 13.44 205.68 13.6 205.136 13.92C204.608 14.224 204.176 14.672 203.84 15.264C203.52 15.856 203.36 16.552 203.36 17.352C203.36 18.152 203.52 18.848 203.84 19.44C204.176 20.032 204.608 20.488 205.136 20.808C205.68 21.112 206.256 21.264 206.864 21.264C207.488 21.264 208.064 21.104 208.592 20.784C209.136 20.464 209.568 20.008 209.888 19.416C210.224 18.824 210.392 18.12 210.392 17.304ZM219.625 12.768C220.057 12.064 220.617 11.512 221.305 11.112C222.009 10.712 222.809 10.512 223.705 10.512V14.04H222.817C221.761 14.04 220.961 14.288 220.417 14.784C219.889 15.28 219.625 16.144 219.625 17.376V24H216.265V10.704H219.625V12.768ZM227.673 9.12C227.081 9.12 226.585 8.936 226.185 8.568C225.801 8.184 225.609 7.712 225.609 7.152C225.609 6.592 225.801 6.128 226.185 5.76C226.585 5.376 227.081 5.184 227.673 5.184C228.265 5.184 228.753 5.376 229.137 5.76C229.537 6.128 229.737 6.592 229.737 7.152C229.737 7.712 229.537 8.184 229.137 8.568C228.753 8.936 228.265 9.12 227.673 9.12ZM229.329 10.704V24H225.969V10.704H229.329ZM240.016 10.512C241.6 10.512 242.88 11.016 243.856 12.024C244.832 13.016 245.32 14.408 245.32 16.2V24H241.96V16.656C241.96 15.6 241.696 14.792 241.168 14.232C240.64 13.656 239.92 13.368 239.008 13.368C238.08 13.368 237.344 13.656 236.8 14.232C236.272 14.792 236.008 15.6 236.008 16.656V24H232.648V10.704H236.008V12.36C236.456 11.784 237.024 11.336 237.712 11.016C238.416 10.68 239.184 10.512 240.016 10.512ZM252.427 13.464V19.896C252.427 20.344 252.531 20.672 252.739 20.88C252.963 21.072 253.331 21.168 253.843 21.168H255.403V24H253.291C250.459 24 249.043 22.624 249.043 19.872V13.464H247.459V10.704H249.043V7.416H252.427V10.704H255.403V13.464H252.427Z" fill="white"/>
</svg>
